<svg width="1024" height="1024" viewBox="0 0 1024 1024" fill="none" xmlns="http://www.w3.org/2000/svg">
  <g fill="#2B2B2B">
    <rect x="236" y="514" width="116" height="282" rx="34"/>
    <rect x="454" y="392" width="116" height="404" rx="34"/>
    <rect x="672" y="274" width="116" height="522" rx="34"/>
    <path fill-rule="evenodd" clip-rule="evenodd" d="M759.2 224H636C617.2 224 602 239.2 602 258C602 276.8 617.2 292 636 292H678.4L563.4 407L494.6 338.2C482 325.6 461.9 324.8 448.3 336.2L240.2 510.2C225.8 522.3 223.9 543.7 236 558.1C248.1 572.5 269.5 574.4 283.9 562.3L468.2 408.1L539.4 479.4C552.7 492.7 574.3 492.7 587.5 479.4L726 340.8V383.2C726 402 741.2 417.2 760 417.2C778.8 417.2 794 402 794 383.2V258.8C794 239.6 778.4 224 759.2 224Z"/>
  </g>
</svg>
